HIERARCHY
ROOT Hips
{
	OFFSET 0.000000 0.000000 0.000000 
	CHANNELS 6 Xposition Yposition Zposition Yrotation Zrotation Xrotation 
	JOINT Lumbar
	{
		OFFSET 0.000000 0.000000 0.000000 
		CHANNELS 3 Zrotation Xrotation Yrotation
		JOINT Neck
		{
			OFFSET 0.000000 0.445665 0.000000 
			CHANNELS 3 Zrotation Xrotation Yrotation
			End Site
			{
				OFFSET 0.000000 0.227535 0.000000 
			}
		}
		JOINT RightShoulder
		{
			OFFSET 0.019635 0.377685 0.194865 
			CHANNELS 3 Zrotation Xrotation Yrotation
			JOINT RightElbow
			{
				OFFSET 0.000000 -0.243375 0.000000 
				CHANNELS 2 Zrotation Yrotation
				JOINT RightWrist
				{
					OFFSET 0.000000 -0.264825 0.000000 
					CHANNELS 2 Zrotation Xrotation
					End Site
					{
						OFFSET 0.006600 -0.176220 0.000990 
					}
				}
			}
		}
		JOINT LeftShoulder
		{
			OFFSET 0.019635 0.377685 -0.194865 
			CHANNELS 3 Zrotation Xrotation Yrotation
			JOINT LeftElbow
			{
				OFFSET 0.000000 -0.243375 0.000000 
				CHANNELS 2 Zrotation Yrotation
				JOINT LeftWrist
				{
					OFFSET 0.000000 -0.264825 0.000000 
					CHANNELS 2 Zrotation Xrotation
					End Site
					{
						OFFSET 0.006600 -0.176220 -0.000990 
					}
				}
			}
		}
	}
	JOINT RightHip
	{
		OFFSET 0.052140 -0.069960 0.075570 
		CHANNELS 3 Zrotation Xrotation Yrotation
		JOINT RightKnee
		{
			OFFSET 0.000000 -0.402270 0.000000 
			CHANNELS 1 Zrotation
			JOINT RightAnkle
			{
				OFFSET 0.000000 -0.404085 0.000000 
				CHANNELS 3 Zrotation Xrotation Yrotation
				End Site
				{
					OFFSET 0.204105 -0.089430 0.008415 
				}
			}
		}
	}
	JOINT LeftHip
	{
		OFFSET 0.052140 -0.069960 -0.075570 
		CHANNELS 3 Zrotation Xrotation Yrotation
		JOINT LeftKnee
		{
			OFFSET 0.000000 -0.402270 0.000000 
			CHANNELS 1 Zrotation
			JOINT LeftAnkle
			{
				OFFSET 0.000000 -0.404085 0.000000 
				CHANNELS 3 Zrotation Xrotation Yrotation
				End Site
				{
					OFFSET 0.204105 -0.089430 -0.008415 
				}
			}
		}
	}
}
MOTION
Frames: 25
Frame Time: 0.02
0.0005 9e-05 0.0001 15.94039 -33.66816 -3.0532 56.02808 1.9481 2.36118 -4.58236 -6.54517 -0.08821 130.04508 -72.5238 -85.14702 7.84837 70.65225 1.36363 -8.99126 155.173 74.66296 80.97425 8.33086 -65.09273 5.40043 9.97607 48.9648 -5.67815 -10.63973 -18.96865 -7.62671 -4.54149 -3.03715 52.46816 7.7817 -0.90118 -24.10026 -9.75437 5.25164 3.72622
0.0003 6e-05 0.00019 15.98119 -33.64437 -3.03827 56.02057 1.87605 2.35486 -4.6817 -6.25146 -0.08999 129.86568 -72.52075 -85.33302 7.85863 70.673 1.40434 -8.94973 155.22097 74.62479 81.19452 8.33337 -65.09022 5.48353 9.91932 48.95907 -5.60603 -10.13269 -18.97345 -7.67172 -4.57941 -3.06974 52.46132 7.81215 -0.69979 -24.10134 -9.75446 5.25698 3.71913
0.0001 3e-05 0.00028 16.02186 -33.62061 -3.02337 56.01305 1.80418 2.34857 -4.78084 -5.95844 -0.09178 129.68652 -72.51775 -85.51885 7.86877 70.69364 1.44493 -8.90824 155.26873 74.58678 81.41416 8.33588 -65.08797 5.56632 9.86278 48.95334 -5.53417 -9.62733 -18.97824 -7.71659 -4.61723 -3.10223 52.45447 7.84256 -0.49869 -24.10242 -9.75452 5.26229 3.71204
-9e-05 -0 0.00037 16.06253 -33.59689 -3.00848 56.00556 1.73234 2.34227 -4.87989 -5.6656 -0.09355 129.5077 -72.51471 -85.70434 7.879 70.71431 1.48552 -8.86683 155.31659 74.54872 81.63369 8.3384 -65.08526 5.6492 9.8062 48.94763 -5.46228 -9.12189 -18.98303 -7.76145 -4.65504 -3.13472 52.44765 7.87293 -0.29787 -24.10349 -9.7546 5.26761 3.70497
-0.00029 -3e-05 0.00045 16.10333 -33.57314 -2.99358 55.99809 1.66035 2.33593 -4.9791 -5.37215 -0.09534 129.32855 -72.51163 -85.88984 7.88937 70.73512 1.52622 -8.82539 155.36454 74.51052 81.854 8.34087 -65.08288 5.73229 9.74941 48.94191 -5.39011 -8.61469 -18.98782 -7.80646 -4.69296 -3.16733 52.44084 7.90331 -0.09688 -24.10457 -9.75474 5.27298 3.69791
-0.00049 -6e-05 0.00054 16.14373 -33.54938 -2.97866 55.99047 1.58875 2.32975 -5.07809 -5.08006 -0.09712 129.14926 -72.5088 -86.07634 7.89899 70.7554 1.56654 -8.78377 155.4118 74.47296 82.07232 8.34347 -65.08129 5.81439 9.6934 48.93615 -5.31891 -8.1132 -18.99261 -7.85104 -4.73054 -3.19958 52.43393 7.93376 0.10444 -24.10565 -9.75462 5.27814 3.69077
-0.00068 -9e-05 0.00063 16.18489 -33.52568 -2.96379 55.98316 1.51643 2.32325 -5.17741 -4.78554 -0.0989 128.971 -72.50541 -86.26063 7.91017 70.77672 1.60762 -8.74263 155.4608 74.434 82.29395 8.34589 -65.07631 5.89871 9.63585 48.9305 -5.24586 -7.6009 -18.99739 -7.89642 -4.76877 -3.23249 52.42723 7.96405 0.30485 -24.10672 -9.75502 5.28371 3.68379
-0.00088 -0.00013 0.00072 16.22535 -33.5019 -2.94887 55.97555 1.44478 2.31705 -5.27644 -4.4933 -0.10068 128.79078 -72.50268 -86.44695 7.91981 70.79709 1.64796 -8.70092 155.50744 74.3966 82.51335 8.34831 -65.07774 5.98038 9.57978 48.92474 -5.17448 -7.09833 -19.00219 -7.94108 -4.80641 -3.26481 52.42032 7.99449 0.50616 -24.1078 -9.75494 5.2889 3.67666
-0.00107 -0.00016 0.0008 16.26497 -33.47808 -2.93392 55.96761 1.37387 2.31122 -5.37512 -4.20353 -0.10246 128.61206 -72.50017 -86.63595 7.92796 70.81626 1.68755 -8.659 155.5542 74.36004 82.72686 8.3514 -65.07403 6.06123 9.52526 48.91888 -5.10524 -6.60842 -19.00698 -7.98479 -4.84329 -3.29634 52.41319 8.02511 0.70847 -24.10889 -9.75425 5.29365 3.66936
-0.00127 -0.00019 0.0009 16.30944 -33.45467 -2.91922 55.96171 1.29848 2.30325 -5.4758 -3.8986 -0.10423 128.43641 -72.49465 -86.81012 7.94587 70.84222 1.7319 -8.61972 155.60932 74.31547 82.96472 8.35266 -65.06086 6.15406 9.46104 48.91368 -5.02397 -6.04796 -19.01174 -8.03379 -4.88442 -3.33224 52.40747 8.05469 0.90474 -24.10991 -9.75703 5.30102 3.66307
-0.00147 -0.00022 0.00097 16.3437 -33.43029 -2.90396 55.95142 1.23266 2.29981 -5.57228 -3.62629 -0.10602 128.24686 -72.49657 -87.01513 7.94245 70.85394 1.76595 -8.57399 155.64101 74.28981 83.15732 8.35646 -65.09256 6.217 9.41778 48.90702 -4.96789 -5.6349 -19.01658 -8.07172 -4.91667 -3.35901 52.39869 8.08646 1.11387 -24.11108 -9.75248 5.3028 3.65464
-0.00169 -0.00025 0.001 16.34938 -33.40393 -2.88735 55.92947 1.19246 2.30889 -5.65709 -3.43908 -0.10786 128.07062 -72.51039 -87.30734 7.88593 70.8257 1.77226 -8.51729 155.6406 74.30058 83.17068 8.37797 -65.03197 6.23341 9.42665 48.89681 -4.98343 -5.64255 -19.02173 -8.07817 -4.92368 -3.35977 52.38207 8.12418 1.35687 -24.11257 -9.72791 5.28956 3.64024
-0.00191 -0.00028 0.001 16.3449 -33.37645 -2.87012 55.90301 1.16198 2.32258 -5.73767 -3.28543 -0.1097 127.86482 -72.5333 -87.62852 7.80699 70.78346 1.76719 -8.45267 155.60058 74.3336 83.14615 8.39992 -65.04777 6.21224 9.45627 48.88506 -5.02385 -5.79541 -19.02699 -8.07368 -4.92193 -3.35152 52.36229 8.16397 1.6124 -24.11423 -9.69604 5.2707 3.62373
-0.00214 -0.00032 0.00102 16.3454 -33.34903 -2.85309 55.8784 1.12749 2.334 -5.82035 -3.11928 -0.11153 127.64667 -72.55761 -87.93669 7.73479 70.74807 1.76823 -8.38752 155.5706 74.36599 83.17829 8.4148 -65.18029 6.18629 9.48153 48.87364 -5.05119 -5.87094 -19.0321 -8.07495 -4.92478 -3.34802 52.34352 8.20303 1.8639 -24.11585 -9.66739 5.25413 3.60821
-0.00236 -0.00035 0.00103 16.34432 -33.3235 -2.83648 55.85476 1.09134 2.34583 -5.90248 -2.94156 -0.11341 127.56223 -72.55848 -88.25049 7.67715 70.71007 1.76922 -8.34057 155.6158 74.3567 83.05473 8.45918 -64.70909 6.25653 9.49071 48.86363 -5.08584 -5.99375 -19.03747 -8.07302 -4.92505 -3.34181 52.32641 8.24179 2.11099 -24.11725 -9.63885 5.23843 3.59246
-0.00259 -0.00039 0.00104 16.34418 -33.29375 -2.81873 55.82787 1.0609 2.35835 -5.98451 -2.79591 -0.11517 127.16105 -72.61046 -88.55163 7.58381 70.67484 1.7627 -8.25284 155.44281 74.44165 83.23282 8.44161 -65.469 6.11251 9.53167 48.85052 -5.11144 -6.05359 -19.0425 -8.07499 -4.92854 -3.33903 52.30526 8.28091 2.36702 -24.11924 -9.60867 5.21986 3.57682
-0.00285 -0.00045 0.00102 16.34874 -33.25277 -2.79934 55.79424 1.04427 2.36807 -6.06862 -2.73026 -0.11666 126.15548 -72.79734 -88.84717 7.39822 70.63896 1.77809 -8.06113 155.11993 74.75798 84.33902 8.25866 -69.99374 5.43174 9.70979 48.82769 -5.10339 -5.89396 -19.04505 -8.09167 -4.94372 -3.34855 52.27246 8.32734 2.67335 -24.12204 -9.57268 5.1924 3.56054
-0.00312 -0.00053 0.001 16.35459 -33.20761 -2.77865 55.75719 1.03304 2.37918 -6.15201 -2.69566 -0.11804 124.78044 -73.034 -89.10131 7.17755 70.60424 1.77733 -7.8261 154.49379 75.16928 85.71232 8.01268 -75.68492 4.53022 9.90751 48.80219 -5.0858 -5.6677 -19.04758 -8.11235 -4.96227 -3.36169 52.23598 8.37311 2.98381 -24.12557 -9.53564 5.16256 3.54464
-0.00339 -0.00061 0.00099 16.36023 -33.16417 -2.75757 55.72112 1.01898 2.39176 -6.2355 -2.64719 -0.11944 123.40542 -73.25322 -89.37697 6.9721 70.58214 1.75983 -7.60816 153.71907 75.55686 86.93462 7.79127 -80.58791 3.69711 10.06238 48.77877 -5.07432 -5.47858 -19.05104 -8.13041 -4.97892 -3.3728 52.20195 8.41431 3.27243 -24.12927 -9.50136 5.13551 3.52964
-0.00365 -0.00066 0.00096 16.36431 -33.12117 -2.74029 55.68776 1.00654 2.39483 -6.32192 -2.59935 -0.12093 122.74897 -73.45956 -89.72781 6.76797 70.52171 1.85 -7.40622 154.16181 75.87739 88.36992 7.58546 -86.57566 2.98876 10.36729 48.75116 -5.05642 -5.26583 -19.05039 -8.15168 -4.99707 -3.38534 52.16433 8.4748 3.64202 -24.13088 -9.45806 5.10157 3.51038
-0.00394 -0.00078 0.00096 16.37163 -33.07661 -2.71521 55.64743 0.99225 2.41896 -6.39948 -2.55656 -0.12223 120.49495 -73.69351 -89.80452 6.55425 70.5194 1.70418 -7.1541 151.98509 76.34198 89.31355 7.3342 -90.5895 1.9795 10.35652 48.73225 -5.04903 -5.08424 -19.05857 -8.16709 -5.01271 -3.39572 52.13361 8.49661 3.84844 -24.13699 -9.43227 5.08083 3.49967
-0.00436 -0.00111 0.00104 16.39172 -33.02581 -2.66531 55.59331 0.96812 2.49242 -6.47516 -2.5249 -0.12295 114.04718 -74.07943 -90.10896 6.31263 70.88272 0.98432 -6.83643 142.76958 77.32884 89.84808 6.95546 -88.78583 0.09725 9.53955 48.7328 -5.07532 -5.00751 -19.08869 -8.16783 -5.02325 -3.40078 52.12054 8.39692 3.56172 -24.15549 -9.46506 5.10303 3.51647
-0.00481 -0.00152 0.00115 16.41446 -32.97401 -2.6082 55.53115 0.9424 2.58842 -6.53757 -2.49626 -0.12355 105.99015 -74.47118 -89.99628 6.06457 71.27704 0.01732 -6.46192 130.91945 78.42622 89.72886 6.5364 -84.97152 -2.06402 8.39521 48.74304 -5.11202 -4.96347 -19.1281 -8.16218 -5.03075 -3.40333 52.11492 8.26076 3.11735 -24.17848 -9.5139 5.13765 3.54124
-0.00526 -0.00191 0.00126 16.43315 -32.92477 -2.5569 55.47001 0.91974 2.67991 -6.5917 -2.4628 -0.12421 98.57463 -74.80735 -89.38522 5.8261 71.50871 -0.88923 -6.06774 120.17989 79.3804 89.19415 6.1472 -82.12914 -4.03186 7.34915 48.75244 -5.14222 -4.90178 -19.1649 -8.15782 -5.03791 -3.40602 52.10751 8.15144 2.77356 -24.19933 -9.54857 5.16255 3.55966
-0.00567 -0.00224 0.00132 16.46327 -32.86704 -2.49523 55.42106 0.8879 2.74802 -6.70717 -2.44467 -0.12467 91.4869 -75.38422 -91.51516 5.55821 72.32303 -1.59174 -5.84862 109.74109 80.74464 91.51535 5.70708 -79.07656 -6.28067 6.49954 48.74725 -5.17933 -4.84866 -19.19507 -8.16021 -5.05226 -3.41293 52.09353 8.00014 2.31174 -24.2206 -9.61128 5.204 3.58923
